<svg xmlns="http://www.w3.org/2000/svg" viewBox="0 0 100 100" fill="none" role="img" aria-label="Khiva Shodlik Travel emblem">
  <defs>
    <linearGradient id="sky" x1="30" y1="12" x2="70" y2="78" gradientUnits="userSpaceOnUse">
      <stop stop-color="#e8dfd0"/>
      <stop offset=".45" stop-color="#c5d0dc"/>
      <stop offset="1" stop-color="#9aabb8"/>
    </linearGradient>
    <clipPath id="clip">
      <circle cx="50" cy="50" r="45"/>
    </clipPath>
  </defs>
  <circle cx="50" cy="50" r="49" fill="#faf8f4" stroke="#2c241c" stroke-width="1.4"/>
  <circle cx="50" cy="50" r="46" fill="url(#sky)" stroke="#8b7355" stroke-width=".6"/>
  <g clip-path="url(#clip)">
    <ellipse cx="50" cy="82" rx="38" ry="8" fill="#b8956a" fill-opacity=".35"/>
    <path d="M14 50h5v4h-5zm9 0h5v4h-5zm9 0h5v4h-5zm9 0h5v4h-5zm9 0h5v4h-5zm9 0h5v4h-5zm9 0h5v4h-5zm9 0h5v4h-5z" fill="#a08060" fill-opacity=".85"/>
    <path d="M18 76h20v-14c0-5 4-9 10-9s10 4 10 9v14H18z" fill="#9a7d5c" stroke="#4a3728" stroke-width=".7"/>
    <ellipse cx="28" cy="55" rx="6" ry="4" fill="#6b5d52" stroke="#3d3028" stroke-width=".6"/>
    <path d="M24 55c0-3 1.8-5.5 4-5.5s4 2.5 4 5.5" stroke="#4a6a7a" stroke-width=".5" fill="#8ab4c4" fill-opacity=".55"/>
    <path d="M58 78V42c0-14 2.5-24 8-24s8 10 8 24v36H58z" fill="#6e9090" stroke="#3d4a48" stroke-width=".75"/>
    <path d="M60 52h4v3h-4zm0 7h4v3h-4zm0 7h4v3h-4zm0-14h4v3h-4zm0-21h4v3h-4z" fill="#8ab0b0" fill-opacity=".5"/>
    <path d="M59 52h8M59 59h8M59 66h8M59 45h8" stroke="#c5ddd8" stroke-width=".55" opacity=".7"/>
    <path d="M50 82C38 74 32 74 26 78M50 82C58 74 64 74 70 78" stroke="#8b6914" stroke-width="1.2" fill="none" stroke-linecap="round"/>
    <path d="M22 24c1.5-.8 3-.8 4.5 0M30 20c2-1 4-1 6 0" stroke="#5a6a78" stroke-width=".65" stroke-linecap="round" fill="none"/>
  </g>
</svg>
