<svg xmlns="http://www.w3.org/2000/svg" viewBox="0 0 320 88" fill="none" role="img" aria-label="Khiva Shodlik Travel">
  <g transform="translate(4 4) scale(0.8)">
    <circle cx="50" cy="50" r="49" fill="#faf8f4" stroke="#2c241c" stroke-width="1.4"/>
    <circle cx="50" cy="50" r="46" fill="#c5d0dc" stroke="#8b7355" stroke-width=".6"/>
    <path d="M16 76h24v-16c0-6 5.4-11 12-11s12 5 12 11v16H16z" fill="#9a7d5c" stroke="#4a3728" stroke-width=".7"/>
    <ellipse cx="28" cy="55" rx="6" ry="4" fill="#6b5d52" stroke="#3d3028" stroke-width=".6"/>
    <path d="M58 78V42c0-14 2.5-24 8-24s8 10 8 24v36H58z" fill="#6e9090" stroke="#3d4a48" stroke-width=".75"/>
    <path d="M50 82C38 74 26 78M50 82C58 74 70 78" stroke="#8b6914" stroke-width="1.2" fill="none"/>
  </g>
  <text x="96" y="40" font-family="Georgia, 'Times New Roman', serif" font-size="22" font-weight="700" fill="#1e3a5f" letter-spacing="-.02em">
    <tspan fill="#f97316">Khiva</tspan><tspan> Shodlik Travel</tspan>
  </text>
  <line x1="96" y1="50" x2="126" y2="50" stroke="#8b7355" stroke-width=".8" opacity=".65"/>
  <path d="M136 50l2.5-2.5 2.5 2.5-2.5 2.5-2.5-2.5zm0 0l1.8-1.8 1.8 1.8-1.8 1.8L136 50z" fill="#6b5344"/>
  <line x1="146" y1="50" x2="176" y2="50" stroke="#8b7355" stroke-width=".8" opacity=".65"/>
</svg>
